<svg id="图层_1" data-name="图层 1" xmlns="http://www.w3.org/2000/svg" viewBox="0 0 512 512"><defs><style>.cls-1{fill:#c8c8c8;}.cls-2{fill:#fbfbfb;}.cls-3{fill:#f9f9f9;}.cls-4{fill:#fafafa;}.cls-5{fill:#f5f5f5;}.cls-6{fill:#ededed;}.cls-7{fill:#fdfdfd;}.cls-8{fill:#ddd;}.cls-9{fill:#020202;}</style></defs><title>icon</title><rect width="512" height="512"/><path class="cls-1" d="M269.26,114.83,74.6,365.94c2,1.67,3.86,1,5.57,1q92.21.06,184.42.11c3.51,0,5.85-1,8-3.81,5.5-7.33,11.27-14.45,17-21.62a16.69,16.69,0,0,1,3.11-3.17,2.51,2.51,0,0,1,2.3.13c.95.68.05,1.48-.42,2.06q-11.11,14.15-22.3,28.24c-1.75,2.21-4.27,1.5-6.52,1.5q-52.47.06-104.95,0h-84c-1.5,0-3,0-4.5,0-1.17,0-2.56.13-3.19-1-.82-1.43.48-2.47,1.25-3.48q8.53-11.1,17.13-22.14,89.4-115.3,178.83-230.59c1.16-1.49,1.95-4.17,4.22-3.66s1.9,3.24,2.37,5.09q11.24,44.78,22.34,89.59c.36,1.45,2.23,3.91-.25,4.61-3,.85-2.59-2.48-3-4.09q-10.75-42.58-21.31-85.23C270.35,118.25,269.92,117,269.26,114.83Z"/><path class="cls-2" d="M230.24,271.81c.08-18.58,5-23.12,23.45-21.73a14.63,14.63,0,0,1,3,.37c1.12.32,3.08-.1,2.67,2-.37,2-2.07,1.29-3.27,1.15a41,41,0,0,0-12.42,0c-5.27,1-8.25,4-9.09,9.18a53.84,53.84,0,0,0,0,17.91c1.4,8,14,13.24,20.78,8.66a4.62,4.62,0,0,0,2-3.84c.12-2.33-.11-4.68.14-7,.39-3.54-1-4.82-4.49-4.48-1.23.12-3.44.78-3.3-1.63.11-1.88,2-1.23,3.22-1.36.82-.08,1.68.1,2.49,0,4.32-.71,6.1.85,5.58,5.38a75.65,75.65,0,0,0-.07,10c.09,4-1.9,6.18-5.78,6.78-.83.13-1.63.35-2.46.45C236.07,295.62,230.16,289.85,230.24,271.81Z"/><path class="cls-3" d="M324.41,279.28v2c0,11.37-.77,12.2-12.21,12.5a31.53,31.53,0,0,1-6.93-.54c-5.4-1.08-7.65-4.06-7.51-9.47.15-5.65,2.78-9,8-9.74,3.28-.5,6.65-.46,9.92-1,1.74-.29,4.75,1.53,4.94-2.22.16-3.2-.47-6-4.15-7-4-1.08-7.9-.69-11.89-.21-1.42.17-3.79,1.48-4.14-1-.37-2.61,2.34-1.75,3.71-2C321.13,257.83,324.41,260.89,324.41,279.28Z"/><path class="cls-4" d="M431.39,285.81c2.73-8.08,5-15,7.43-21.87.56-1.59.86-4.21,3.45-3.06,1.93.85.24,2.67-.15,3.84-4.13,12.46-8.39,24.89-12.67,37.31-.49,1.44-.66,3.9-3,3.14-2.55-.84-.82-2.91-.19-4.1,3.81-7.15,2.74-13.78-1.09-20.63-2.83-5.06-4.82-10.59-7-16-.44-1.1-2.4-2.66-.21-3.67s2.81,1,3.48,2.55q4,9.15,7.94,18.31C429.86,282.7,430.39,283.73,431.39,285.81Z"/><path class="cls-3" d="M349.37,288.76l9.19-23c.49-1.23,1-2.46,1.52-3.68a2,2,0,0,1,2.84-1.21c1.17.59.53,1.71.17,2.61q-5.46,13.67-10.95,27.3c-.55,1.36-1.15,3-3,2.9s-2.29-1.7-2.85-3.12c-3.5-8.8-7.05-17.58-10.46-26.42-.37-1-1.88-2.46,0-3.31s2.69.5,3.29,2q3.68,9.54,7.41,19.05C347.33,283.83,348.14,285.75,349.37,288.76Z"/><path class="cls-5" d="M403.82,293.83c-5.12.07-7.86-2.47-8.06-8-.22-6-.16-12,0-18,0-2.83-.18-5-3.89-4.55-.92.11-2.12,0-2.07-1.46,0-1.09,1-1.34,1.79-1.24,4.41.59,4.26-2.28,4.16-5.26,0-1.56-.57-3.75,2-3.71,2.83,0,1.71,2.5,1.61,3.8-.27,3.66.62,5.78,4.82,5.15.91-.14,2.21-.15,2.33,1.19.15,1.8-1.43,1.69-2.46,1.53-4.44-.67-4.77,1.86-4.65,5.3.19,5.48.11,11,0,16.46,0,3.33,1.15,5.45,4.73,5.72,1.08.08,2.66-.32,2.67,1.4C406.8,294.2,405,293.68,403.82,293.83Z"/><path class="cls-6" d="M273.84,277.91c0-3.66.21-7.33,0-11s1.32-5.59,4.88-6.06c.66-.09,1.3-.32,2-.36,2.82-.18,7.54-2.1,8,.67.55,3.7-4.32,1.86-6.65,2.34-3.56.73-4.6,2.22-4.47,5.68.24,6.48.14,13,0,19.46,0,1.56,1.16,4.36-1.63,4.38-3.1,0-1.84-2.95-1.94-4.66C273.7,284.91,273.83,281.41,273.84,277.91Z"/><path class="cls-7" d="M378.77,277.3c0,4.32,0,8.65,0,13,0,1.24.31,2.91-1.77,2.83-1.72-.06-1.47-1.51-1.48-2.6q0-13.47,0-26.92c0-1.23-.36-3,1.73-2.83s1.5,1.89,1.51,3.09C378.81,268.33,378.77,272.82,378.77,277.3Z"/><path class="cls-8" d="M379.37,250.26c-.1,1.22-.25,2.54-2,2.74s-2.26-1-2.34-2.4.14-3.15,2.12-3.18C378.78,247.4,379.29,248.69,379.37,250.26Z"/><path class="cls-9" d="M321.05,282.05c-1.19,2.81,1.51,6.62-2.6,7.64-5.3,1.3-11,2.74-15.69-1.36-3.44-3-1.15-10.28,3.4-11.2A58.44,58.44,0,0,1,318,276C323.35,276.07,319.11,280.59,321.05,282.05Z"/></svg>